<svg xmlns="http://www.w3.org/2000/svg" id="SvgjsSvg40091" width="4096" height="2674.827756657739" version="1.1" xmlnsXlink="http://www.w3.org/1999/xlink" xmlnsSvgjs="http://svgjs.com/svgjs"><defs id="SvgjsDefs40092"></defs><g id="SvgjsG40093" transform="translate(328, 327.9999999999999) scale(34.4)" opacity="1"><defs id="SvgjsDefs12106"></defs><g id="SvgjsG12107" transform="scale(0.21645021645021645)" opacity="1"><g id="SvgjsG12108" class="ozcUb2XKV" transform="translate(132.30996480734362, -8.85624499107352) scale(1.7712489982147042)" light-content="false" non-strokable="false" fill="#d2ac47"><path d="M17.719 5L5 17.719V82.28L17.719 95h64.563L95 82.281V17.72L82.282 5zm1.5 3.125h61.563l11.093 11.094V80.78L80.782 91.875H19.219L8.125 80.781V19.22z"></path></g><g id="SvgjsG12109" class="text" transform="translate(220.43834017935663, 99.72135153300266) scale(1)" light-content="false" fill="#d2ac47"><path d="M-19 -40.91L-30.45 -7.31L-43.25 -40.91L-51.73 -40.91L-51.73 -40.33L-47.93 -39.16L-47.93 -2.05L-51.73 -0.58L-51.73 0L-42.96 0L-42.96 -0.58L-46.76 -2.05L-46.76 -35.94L-32.73 0.88L-31.85 0.88L-19.29 -35.94L-19.29 -1.46L-22.79 -0.58L-22.79 0L-10.81 0L-10.81 -0.58L-14.32 -1.46L-14.32 -39.45L-10.81 -40.33L-10.81 -40.91Z M4.68 -40.91L-5.55 -40.91L-5.55 -40.33L-2.05 -39.45L-2.05 -1.46L-5.55 -0.58L-5.55 0L4.68 0C7.25 0 9.61 -0.46 11.78 -1.37C13.94 -2.29 15.82 -3.62 17.42 -5.38C19.01 -7.13 20.26 -9.27 21.16 -11.81C22.05 -14.34 22.5 -17.22 22.5 -20.46C22.5 -23.65 22.05 -26.52 21.16 -29.05C20.26 -31.58 19.01 -33.72 17.42 -35.48C15.82 -37.23 13.94 -38.58 11.78 -39.51C9.61 -40.45 7.25 -40.91 4.68 -40.91ZM2.92 -39.74L4.68 -39.74C6.35 -39.74 7.94 -39.38 9.44 -38.66C10.94 -37.94 12.24 -36.8 13.36 -35.24C14.47 -33.69 15.34 -31.69 15.99 -29.25C16.63 -26.82 16.95 -23.89 16.95 -20.46C16.95 -17.03 16.63 -14.1 15.99 -11.66C15.34 -9.22 14.47 -7.23 13.36 -5.67C12.24 -4.11 10.94 -2.97 9.44 -2.25C7.94 -1.53 6.35 -1.17 4.68 -1.17L2.92 -1.17Z M27.18 0L37.7 0C39.96 0 42 -0.34 43.84 -1.02C45.67 -1.7 47.24 -2.64 48.54 -3.83C49.85 -5.02 50.85 -6.41 51.55 -8.01C52.25 -9.6 52.6 -11.32 52.6 -13.15C52.6 -14.63 52.42 -15.95 52.05 -17.1C51.68 -18.25 51.19 -19.26 50.59 -20.14C49.98 -21.01 49.3 -21.75 48.54 -22.36C47.78 -22.96 46.99 -23.48 46.17 -23.9C44.3 -24.88 42.16 -25.48 39.74 -25.72C41.38 -25.87 42.84 -26.24 44.13 -26.83C44.67 -27.06 45.21 -27.36 45.73 -27.73C46.26 -28.1 46.73 -28.53 47.14 -29.02C47.55 -29.51 47.88 -30.08 48.13 -30.74C48.38 -31.41 48.51 -32.17 48.51 -33.02C48.51 -34.11 48.29 -35.14 47.84 -36.09C47.39 -37.05 46.72 -37.88 45.82 -38.6C44.93 -39.33 43.81 -39.89 42.46 -40.3C41.12 -40.71 39.53 -40.91 37.7 -40.91L27.18 -40.91L27.18 -40.33L30.68 -39.45L30.68 -1.46L27.18 -0.58ZM35.65 -25.13L37.7 -25.13C39.02 -25.13 40.25 -24.88 41.38 -24.37C42.51 -23.87 43.49 -23.11 44.33 -22.09C45.17 -21.08 45.83 -19.83 46.32 -18.35C46.81 -16.87 47.05 -15.14 47.05 -13.15C47.05 -11.16 46.81 -9.43 46.32 -7.95C45.83 -6.47 45.17 -5.22 44.33 -4.21C43.49 -3.2 42.51 -2.44 41.38 -1.93C40.25 -1.42 39.02 -1.17 37.7 -1.17L35.65 -1.17ZM35.65 -26.3L35.65 -39.74L37.7 -39.74C39.45 -39.74 40.86 -39.18 41.94 -38.05C43.01 -36.92 43.54 -35.24 43.54 -33.02C43.54 -30.8 43.01 -29.14 41.94 -28.03C40.86 -26.91 39.45 -26.34 37.7 -26.3Z"></path></g><g id="SvgjsG12110" class="text" transform="translate(230.82, 219.3663913828056) scale(1)" light-content="false" fill="#d2ac47"><path d="M-230.82 0L-220.05 0L-220.05 -1L-224.11 -2.45L-223.51 -28.31L-211.34 0.25L-209.58 0.25L-197.16 -28.41L-196.61 -2.45L-200.32 -1L-200.32 0L-189.29 0L-189.29 -1L-192.8 -2.5L-193.65 -30.51L-189.44 -32.06L-189.44 -33.06L-197.76 -33.06L-209.68 -5.61L-221.46 -33.06L-230.12 -33.06L-230.12 -32.06L-225.81 -30.46L-226.87 -2.5L-230.82 -1Z M-178.47 0.5C-177.07 0.5 -175.74 0.22 -174.49 -0.35C-173.24 -0.92 -172.18 -1.64 -171.31 -2.5L-171.06 -2.5C-170.82 -1.64 -170.39 -0.92 -169.76 -0.35C-169.12 0.22 -168.27 0.5 -167.2 0.5C-166.17 0.5 -165.31 0.26 -164.62 -0.23C-163.94 -0.71 -163.43 -1.24 -163.09 -1.8L-163.09 -1.9L-163.19 -2L-165.4 -2C-166.03 -2 -166.55 -2.07 -166.95 -2.2C-167.35 -2.34 -167.68 -2.54 -167.95 -2.81L-167.95 -17.58C-167.95 -18.92 -168.27 -19.99 -168.9 -20.79C-169.54 -21.59 -170.37 -22.17 -171.41 -22.52C-172.44 -22.87 -173.6 -23.04 -174.87 -23.04C-175.87 -23.04 -176.86 -22.84 -177.85 -22.44C-178.83 -22.04 -179.79 -21.54 -180.73 -20.94C-181.6 -20.41 -182.25 -19.77 -182.68 -19.04C-183.11 -18.3 -183.33 -17.58 -183.33 -16.88C-183.33 -16.32 -183.24 -15.96 -183.06 -15.81C-182.87 -15.66 -182.53 -15.58 -182.03 -15.58L-179.93 -15.58L-179.67 -15.83L-179.67 -17.48C-179.67 -18.59 -179.41 -19.45 -178.87 -20.09C-178.34 -20.72 -177.4 -21.04 -176.07 -21.04C-174.87 -21.04 -173.77 -20.62 -172.79 -19.79C-171.8 -18.95 -171.31 -17.9 -171.31 -16.63L-171.31 -12.77L-176.17 -11.57C-178.94 -10.9 -180.93 -10 -182.13 -8.87C-183.33 -7.73 -183.93 -6.35 -183.93 -4.71C-183.93 -3.07 -183.42 -1.8 -182.38 -0.88C-181.34 0.04 -180.04 0.5 -178.47 0.5ZM-180.58 -5.66C-180.58 -6.46 -180.37 -7.19 -179.95 -7.84C-179.53 -8.49 -178.66 -9.1 -177.35 -9.67C-176.03 -10.24 -174.01 -10.79 -171.31 -11.32L-171.31 -3.46C-172.24 -2.99 -173.15 -2.66 -174.01 -2.45C-174.88 -2.25 -175.73 -2.15 -176.57 -2.15C-177.84 -2.15 -178.82 -2.45 -179.52 -3.03C-180.23 -3.62 -180.58 -4.49 -180.58 -5.66Z M-150.32 -7.31C-148.68 -7.31 -147.23 -7.66 -145.96 -8.34C-144.69 -9.03 -143.69 -9.96 -142.95 -11.15C-142.22 -12.33 -141.85 -13.68 -141.85 -15.18C-141.85 -16.11 -142.02 -17.05 -142.35 -17.99C-142.69 -18.92 -143.12 -19.69 -143.65 -20.29L-143.5 -20.44L-138.64 -20.09L-138.64 -22.54L-145.91 -22.14C-146.51 -22.41 -147.22 -22.63 -148.04 -22.79C-148.86 -22.96 -149.62 -23.04 -150.32 -23.04C-151.95 -23.04 -153.41 -22.7 -154.68 -22.02C-155.95 -21.33 -156.95 -20.4 -157.68 -19.21C-158.42 -18.03 -158.78 -16.68 -158.78 -15.18C-158.78 -13.78 -158.46 -12.51 -157.81 -11.37C-157.16 -10.24 -156.26 -9.32 -155.13 -8.62L-155.13 -8.32L-157.93 -6.76C-158.73 -6 -159.13 -4.99 -159.13 -3.76C-159.13 -2.76 -158.82 -1.9 -158.18 -1.18C-157.55 -0.46 -156.65 0.03 -155.48 0.3L-155.48 0.45L-158.78 2.86C-159.35 3.79 -159.64 4.86 -159.64 6.06C-159.64 7.73 -158.97 9.14 -157.63 10.3C-156.3 11.45 -154.09 12.02 -151.02 12.02C-148.68 12.02 -146.65 11.61 -144.93 10.77C-143.21 9.94 -141.88 8.88 -140.92 7.59C-139.97 6.3 -139.5 4.96 -139.5 3.56C-139.5 1.65 -140.06 0.19 -141.17 -0.83C-142.29 -1.85 -143.97 -2.35 -146.21 -2.35L-152.07 -2.35C-153.51 -2.35 -154.55 -2.58 -155.2 -3.03C-155.85 -3.48 -156.18 -4.19 -156.18 -5.16C-156.18 -5.76 -156.01 -6.3 -155.68 -6.76C-155.34 -7.23 -154.73 -7.63 -153.82 -7.97C-152.76 -7.53 -151.59 -7.31 -150.32 -7.31ZM-149.82 -8.92C-151.42 -8.92 -152.74 -9.49 -153.77 -10.65C-154.81 -11.8 -155.33 -13.36 -155.33 -15.33C-155.33 -17.07 -154.92 -18.53 -154.1 -19.71C-153.28 -20.9 -152.14 -21.49 -150.67 -21.49C-149.17 -21.49 -147.9 -20.92 -146.89 -19.79C-145.87 -18.65 -145.36 -17.07 -145.36 -15.03C-145.36 -13.26 -145.76 -11.8 -146.56 -10.65C-147.36 -9.49 -148.45 -8.92 -149.82 -8.92ZM-156.58 5.51C-156.58 4.34 -156.4 3.35 -156.05 2.53C-155.7 1.71 -155.06 1.02 -154.13 0.45C-153.89 0.48 -153.64 0.5 -153.37 0.5L-148.06 0.5C-145.99 0.5 -144.56 0.78 -143.75 1.35C-142.95 1.92 -142.55 2.97 -142.55 4.51C-142.55 5.58 -142.89 6.59 -143.55 7.54C-144.22 8.49 -145.14 9.26 -146.31 9.84C-147.48 10.43 -148.83 10.72 -150.37 10.72C-152.1 10.72 -153.57 10.23 -154.78 9.24C-155.98 8.26 -156.58 7.01 -156.58 5.51Z M-128.63 0.5C-127.22 0.5 -125.9 0.22 -124.64 -0.35C-123.39 -0.92 -122.33 -1.64 -121.46 -2.5L-121.21 -2.5C-120.98 -1.64 -120.54 -0.92 -119.91 -0.35C-119.27 0.22 -118.42 0.5 -117.35 0.5C-116.32 0.5 -115.46 0.26 -114.77 -0.23C-114.09 -0.71 -113.58 -1.24 -113.25 -1.8L-113.25 -1.9L-113.35 -2L-115.55 -2C-116.18 -2 -116.7 -2.07 -117.1 -2.2C-117.5 -2.34 -117.84 -2.54 -118.1 -2.81L-118.1 -17.58C-118.1 -18.92 -118.42 -19.99 -119.06 -20.79C-119.69 -21.59 -120.53 -22.17 -121.56 -22.52C-122.6 -22.87 -123.75 -23.04 -125.02 -23.04C-126.02 -23.04 -127.01 -22.84 -128 -22.44C-128.98 -22.04 -129.94 -21.54 -130.88 -20.94C-131.75 -20.41 -132.4 -19.77 -132.83 -19.04C-133.27 -18.3 -133.48 -17.58 -133.48 -16.88C-133.48 -16.32 -133.39 -15.96 -133.21 -15.81C-133.03 -15.66 -132.68 -15.58 -132.18 -15.58L-130.08 -15.58L-129.83 -15.83L-129.83 -17.48C-129.83 -18.59 -129.56 -19.45 -129.03 -20.09C-128.49 -20.72 -127.56 -21.04 -126.22 -21.04C-125.02 -21.04 -123.92 -20.62 -122.94 -19.79C-121.95 -18.95 -121.46 -17.9 -121.46 -16.63L-121.46 -12.77L-126.32 -11.57C-129.09 -10.9 -131.08 -10 -132.28 -8.87C-133.48 -7.73 -134.09 -6.35 -134.09 -4.71C-134.09 -3.07 -133.57 -1.8 -132.53 -0.88C-131.5 0.04 -130.2 0.5 -128.63 0.5ZM-130.73 -5.66C-130.73 -6.46 -130.52 -7.19 -130.1 -7.84C-129.69 -8.49 -128.82 -9.1 -127.5 -9.67C-126.18 -10.24 -124.17 -10.79 -121.46 -11.32L-121.46 -3.46C-122.4 -2.99 -123.3 -2.66 -124.17 -2.45C-125.04 -2.25 -125.89 -2.15 -126.72 -2.15C-127.99 -2.15 -128.98 -2.45 -129.68 -3.03C-130.38 -3.62 -130.73 -4.49 -130.73 -5.66Z M-109.49 0L-93.21 0L-93.21 -6.96L-94.06 -6.96L-95.76 -1.8L-105.18 -1.8L-93.61 -21.64L-93.61 -22.54L-105.78 -22.54C-106.18 -22.54 -106.67 -22.6 -107.26 -22.72C-107.84 -22.84 -108.34 -22.93 -108.74 -22.99L-108.99 -22.99L-109.54 -15.73L-108.74 -15.73L-106.53 -20.74L-97.92 -20.74L-109.49 -0.9Z M-82.08 -29.86C-81.32 -29.86 -80.7 -30.1 -80.23 -30.58C-79.76 -31.07 -79.53 -31.68 -79.53 -32.41C-79.53 -33.18 -79.76 -33.8 -80.23 -34.27C-80.7 -34.73 -81.32 -34.97 -82.08 -34.97C-82.82 -34.97 -83.43 -34.73 -83.91 -34.27C-84.4 -33.8 -84.64 -33.18 -84.64 -32.41C-84.64 -31.68 -84.4 -31.07 -83.91 -30.58C-83.43 -30.1 -82.82 -29.86 -82.08 -29.86ZM-86.54 0L-76.67 0L-76.67 -0.8L-79.98 -2.05L-79.98 -23.04L-80.38 -23.04L-86.64 -21.14L-86.64 -20.64L-83.39 -18.69L-83.39 -2.05L-86.54 -0.8Z M-71.41 0L-61.29 0L-61.29 -0.8L-64.85 -2.05L-64.85 -17.83C-64.18 -18.54 -63.29 -19.08 -62.17 -19.46C-61.05 -19.85 -60.03 -20.04 -59.09 -20.04C-57.52 -20.04 -56.23 -19.6 -55.23 -18.71C-54.23 -17.83 -53.73 -16.53 -53.73 -14.83L-53.73 -2.05L-57.29 -0.8L-57.29 0L-47.17 0L-47.17 -0.8L-50.32 -2.05L-50.32 -16.78C-50.32 -18.82 -50.97 -20.37 -52.28 -21.44C-53.58 -22.51 -55.23 -23.04 -57.24 -23.04C-58.64 -23.04 -59.92 -22.74 -61.07 -22.14C-62.22 -21.54 -63.43 -20.62 -64.7 -19.39L-64.9 -19.39L-65.25 -23.04L-65.65 -23.04L-71.51 -20.94L-71.51 -20.39L-68.26 -18.69L-68.26 -2.05L-71.41 -0.8Z M-33.94 0.5C-32.61 0.5 -31.37 0.22 -30.23 -0.35C-29.1 -0.92 -27.9 -1.84 -26.63 -3.11L-26.43 -3.11L-26.43 0L-19.46 0L-19.46 -0.8L-23.02 -2L-23.02 -22.54L-30.18 -22.54L-30.18 -21.74L-26.43 -20.49L-26.43 -4.71C-27.09 -3.97 -27.97 -3.42 -29.06 -3.06C-30.14 -2.69 -31.15 -2.5 -32.09 -2.5C-33.66 -2.5 -34.93 -2.95 -35.89 -3.83C-36.86 -4.72 -37.35 -6.01 -37.35 -7.72L-37.35 -22.54L-44.06 -22.54L-44.06 -21.74L-40.75 -20.49L-40.75 -5.76C-40.75 -3.72 -40.11 -2.17 -38.83 -1.1C-37.54 -0.03 -35.91 0.5 -33.94 0.5Z M-15.61 0L-5.74 0L-5.74 -0.8L-9.04 -2.05L-9.04 -37.57L-9.44 -37.57L-15.71 -35.67L-15.71 -35.17L-12.45 -33.21L-12.45 -2.05L-15.61 -0.8Z M12.25 0L25.32 0C28.8 0 31.87 -0.76 34.54 -2.28C37.21 -3.8 39.3 -5.91 40.8 -8.62C42.31 -11.32 43.06 -14.46 43.06 -18.04C43.06 -20.91 42.38 -23.48 41.03 -25.75C39.68 -28.02 37.71 -29.81 35.12 -31.11C32.53 -32.41 29.38 -33.06 25.67 -33.06L12.25 -33.06L12.25 -32.06L16.26 -30.56L16.26 -2.5L12.25 -1ZM25.17 -30.71C28.11 -30.71 30.61 -30.13 32.66 -28.96C34.72 -27.79 36.28 -26.13 37.35 -24C38.42 -21.86 38.95 -19.35 38.95 -16.48C38.95 -13.68 38.41 -11.21 37.32 -9.09C36.24 -6.97 34.7 -5.32 32.71 -4.13C30.73 -2.95 28.4 -2.35 25.73 -2.35L20.16 -2.35L20.16 -30.71Z M59.89 0.5C61.86 0.5 63.59 0.04 65.08 -0.88C66.56 -1.8 67.67 -2.92 68.41 -4.26L68.41 -4.81L68.26 -4.81C66.19 -3.34 63.92 -2.61 61.44 -2.61C59.37 -2.61 57.69 -3.03 56.38 -3.88C55.08 -4.73 54.13 -5.89 53.53 -7.34C52.93 -8.79 52.63 -10.39 52.63 -12.12L52.63 -12.52L68.21 -12.52L68.41 -12.72C68.31 -16 67.51 -18.54 66 -20.34C64.5 -22.14 62.43 -23.04 59.79 -23.04C57.92 -23.04 56.18 -22.5 54.58 -21.42C52.98 -20.33 51.69 -18.85 50.72 -16.96C49.76 -15.07 49.27 -12.93 49.27 -10.52C49.27 -8.35 49.69 -6.44 50.52 -4.78C51.36 -3.13 52.57 -1.84 54.16 -0.9C55.74 0.03 57.65 0.5 59.89 0.5ZM59.04 -21.29C62.35 -21.29 64.33 -18.97 65 -14.33L52.78 -14.33C53.08 -16.53 53.8 -18.24 54.93 -19.46C56.07 -20.68 57.44 -21.29 59.04 -21.29Z M86.74 0L99.32 0C101.86 0 104.11 -0.42 106.08 -1.25C108.05 -2.09 109.61 -3.23 110.77 -4.68C111.92 -6.14 112.49 -7.78 112.49 -9.62C112.49 -11.82 111.66 -13.63 109.99 -15.03C108.32 -16.43 105.98 -17.33 102.98 -17.73C105.11 -18.37 106.76 -19.41 107.91 -20.87C109.06 -22.32 109.64 -23.91 109.64 -25.65C109.64 -27.32 109.12 -28.7 108.09 -29.78C107.05 -30.87 105.65 -31.69 103.88 -32.24C102.11 -32.79 100.14 -33.06 97.97 -33.06L86.74 -33.06L86.74 -32.06L90.7 -30.56L90.7 -2.5L86.74 -1ZM97.41 -30.71C100.05 -30.71 102.06 -30.18 103.43 -29.11C104.8 -28.04 105.48 -26.45 105.48 -24.35C105.48 -22.41 104.78 -20.91 103.38 -19.84C101.97 -18.77 100.09 -18.24 97.72 -18.24L94.61 -18.24L94.61 -30.71ZM99.32 -15.88C102.16 -15.88 104.37 -15.34 105.96 -14.25C107.54 -13.17 108.34 -11.46 108.34 -9.12C108.34 -7.15 107.55 -5.52 105.98 -4.23C104.41 -2.95 102.31 -2.3 99.67 -2.3L94.61 -2.3L94.61 -15.88Z M117.9 0L128.12 0L128.12 -0.8L124.47 -2.05L124.47 -16.93C125.14 -17.93 125.84 -18.65 126.57 -19.09C127.31 -19.52 128.09 -19.74 128.93 -19.74C129.66 -19.74 130.33 -19.62 130.93 -19.39L132.43 -18.74L132.68 -18.74L133.48 -20.74C133.55 -20.87 133.59 -21.01 133.61 -21.14C133.63 -21.27 133.64 -21.39 133.64 -21.49C133.64 -21.73 133.52 -21.94 133.28 -22.14C133.05 -22.34 132.75 -22.51 132.38 -22.64C132.18 -22.74 131.92 -22.84 131.58 -22.92C131.25 -23 130.95 -23.04 130.68 -23.04C130.11 -23.04 129.54 -22.95 128.98 -22.77C128.41 -22.59 127.78 -22.18 127.1 -21.57C126.41 -20.95 125.57 -19.99 124.57 -18.69L124.42 -18.69L124.07 -23.04L123.67 -23.04L117.8 -20.94L117.8 -20.39L121.06 -18.69L121.06 -2.05L117.9 -0.8Z M142.35 0.5C143.75 0.5 145.08 0.22 146.33 -0.35C147.59 -0.92 148.65 -1.64 149.52 -2.5L149.77 -2.5C150 -1.64 150.43 -0.92 151.07 -0.35C151.7 0.22 152.56 0.5 153.62 0.5C154.66 0.5 155.52 0.26 156.2 -0.23C156.89 -0.71 157.4 -1.24 157.73 -1.8L157.73 -1.9L157.63 -2L155.43 -2C154.79 -2 154.28 -2.07 153.87 -2.2C153.47 -2.34 153.14 -2.54 152.87 -2.81L152.87 -17.58C152.87 -18.92 152.56 -19.99 151.92 -20.79C151.29 -21.59 150.45 -22.17 149.42 -22.52C148.38 -22.87 147.23 -23.04 145.96 -23.04C144.96 -23.04 143.96 -22.84 142.98 -22.44C141.99 -22.04 141.03 -21.54 140.1 -20.94C139.23 -20.41 138.58 -19.77 138.14 -19.04C137.71 -18.3 137.49 -17.58 137.49 -16.88C137.49 -16.32 137.58 -15.96 137.77 -15.81C137.95 -15.66 138.29 -15.58 138.8 -15.58L140.9 -15.58L141.15 -15.83L141.15 -17.48C141.15 -18.59 141.42 -19.45 141.95 -20.09C142.49 -20.72 143.42 -21.04 144.76 -21.04C145.96 -21.04 147.05 -20.62 148.04 -19.79C149.02 -18.95 149.52 -17.9 149.52 -16.63L149.52 -12.77L144.66 -11.57C141.88 -10.9 139.9 -10 138.7 -8.87C137.49 -7.73 136.89 -6.35 136.89 -4.71C136.89 -3.07 137.41 -1.8 138.44 -0.88C139.48 0.04 140.78 0.5 142.35 0.5ZM140.25 -5.66C140.25 -6.46 140.46 -7.19 140.87 -7.84C141.29 -8.49 142.16 -9.1 143.48 -9.67C144.8 -10.24 146.81 -10.79 149.52 -11.32L149.52 -3.46C148.58 -2.99 147.68 -2.66 146.81 -2.45C145.94 -2.25 145.09 -2.15 144.26 -2.15C142.99 -2.15 142 -2.45 141.3 -3.03C140.6 -3.62 140.25 -4.49 140.25 -5.66ZM145.61 -27.05C147.68 -27.05 149.22 -27.75 150.22 -29.13C151.22 -30.52 152.05 -32.61 152.72 -35.42L152.12 -35.42C151.45 -33.85 150.8 -32.66 150.17 -31.86C149.53 -31.06 148.85 -30.53 148.11 -30.28C147.38 -30.03 146.54 -29.91 145.61 -29.91C144.67 -29.91 143.84 -30.03 143.1 -30.28C142.37 -30.53 141.68 -31.06 141.05 -31.86C140.42 -32.66 139.76 -33.85 139.1 -35.42L138.49 -35.42C139.16 -32.61 140 -30.52 141 -29.13C142 -27.75 143.54 -27.05 145.61 -27.05Z M168.5 0.5C170.01 0.5 171.22 0.18 172.14 -0.48C173.05 -1.13 173.68 -1.79 174.01 -2.45L174.01 -2.81L173.91 -2.86C173.45 -2.69 172.93 -2.55 172.36 -2.43C171.79 -2.31 171.18 -2.25 170.51 -2.25C169.44 -2.25 168.55 -2.48 167.85 -2.93C167.15 -3.38 166.8 -4.07 166.8 -5.01L166.8 -20.44L173.41 -20.44L173.41 -22.54L166.8 -22.54L166.8 -28.05L166.4 -28.05L163.64 -22.54L159.18 -20.84L159.18 -20.44L163.39 -20.44L163.39 -4.46C163.39 -2.89 163.89 -1.67 164.87 -0.8C165.86 0.07 167.07 0.5 168.5 0.5ZM167.05 11.97C168.62 11.97 169.91 11.63 170.93 10.95C171.95 10.26 172.46 9.28 172.46 8.02C172.46 6.81 172.03 5.88 171.16 5.21C170.29 4.54 168.99 4.21 167.25 4.21C166.48 4.21 165.97 4.29 165.72 4.46C165.47 4.63 165.35 4.84 165.35 5.11L165.35 6.76C167.02 6.76 168.21 6.93 168.93 7.26C169.65 7.6 170.01 8.2 170.01 9.07C170.01 10.54 168.94 11.27 166.8 11.27C166.63 11.27 166.42 11.26 166.15 11.25C165.88 11.23 165.63 11.19 165.4 11.12L165.4 11.82C165.63 11.89 165.91 11.93 166.22 11.95C166.54 11.96 166.82 11.97 167.05 11.97Z M183.33 0.5C184.73 0.5 186.06 0.22 187.31 -0.35C188.57 -0.92 189.63 -1.64 190.5 -2.5L190.75 -2.5C190.98 -1.64 191.41 -0.92 192.05 -0.35C192.68 0.22 193.54 0.5 194.6 0.5C195.64 0.5 196.5 0.26 197.18 -0.23C197.87 -0.71 198.38 -1.24 198.71 -1.8L198.71 -1.9L198.61 -2L196.41 -2C195.77 -2 195.26 -2.07 194.85 -2.2C194.45 -2.34 194.12 -2.54 193.85 -2.81L193.85 -17.58C193.85 -18.92 193.54 -19.99 192.9 -20.79C192.27 -21.59 191.43 -22.17 190.4 -22.52C189.36 -22.87 188.21 -23.04 186.94 -23.04C185.94 -23.04 184.94 -22.84 183.96 -22.44C182.97 -22.04 182.01 -21.54 181.08 -20.94C180.21 -20.41 179.56 -19.77 179.12 -19.04C178.69 -18.3 178.47 -17.58 178.47 -16.88C178.47 -16.32 178.56 -15.96 178.75 -15.81C178.93 -15.66 179.27 -15.58 179.78 -15.58L181.88 -15.58L182.13 -15.83L182.13 -17.48C182.13 -18.59 182.4 -19.45 182.93 -20.09C183.47 -20.72 184.4 -21.04 185.74 -21.04C186.94 -21.04 188.03 -20.62 189.02 -19.79C190 -18.95 190.5 -17.9 190.5 -16.63L190.5 -12.77L185.64 -11.57C182.86 -10.9 180.88 -10 179.67 -8.87C178.47 -7.73 177.87 -6.35 177.87 -4.71C177.87 -3.07 178.39 -1.8 179.42 -0.88C180.46 0.04 181.76 0.5 183.33 0.5ZM181.23 -5.66C181.23 -6.46 181.44 -7.19 181.85 -7.84C182.27 -8.49 183.14 -9.1 184.46 -9.67C185.78 -10.24 187.79 -10.79 190.5 -11.32L190.5 -3.46C189.56 -2.99 188.66 -2.66 187.79 -2.45C186.92 -2.25 186.07 -2.15 185.24 -2.15C183.97 -2.15 182.98 -2.45 182.28 -3.03C181.58 -3.62 181.23 -4.49 181.23 -5.66ZM186.59 -27.05C188.66 -27.05 190.2 -27.75 191.2 -29.13C192.2 -30.52 193.03 -32.61 193.7 -35.42L193.1 -35.42C192.43 -33.85 191.78 -32.66 191.15 -31.86C190.51 -31.06 189.83 -30.53 189.09 -30.28C188.36 -30.03 187.52 -29.91 186.59 -29.91C185.65 -29.91 184.82 -30.03 184.08 -30.28C183.35 -30.53 182.66 -31.06 182.03 -31.86C181.39 -32.66 180.74 -33.85 180.08 -35.42L179.47 -35.42C180.14 -32.61 180.98 -30.52 181.98 -29.13C182.98 -27.75 184.52 -27.05 186.59 -27.05Z M202.07 0L212.29 0L212.29 -0.8L208.63 -2.05L208.63 -16.93C209.3 -17.93 210 -18.65 210.74 -19.09C211.47 -19.52 212.25 -19.74 213.09 -19.74C213.82 -19.74 214.49 -19.62 215.09 -19.39L216.6 -18.74L216.85 -18.74L217.65 -20.74C217.72 -20.87 217.76 -21.01 217.77 -21.14C217.79 -21.27 217.8 -21.39 217.8 -21.49C217.8 -21.73 217.68 -21.94 217.45 -22.14C217.21 -22.34 216.91 -22.51 216.55 -22.64C216.35 -22.74 216.08 -22.84 215.75 -22.92C215.41 -23 215.11 -23.04 214.84 -23.04C214.28 -23.04 213.71 -22.95 213.14 -22.77C212.57 -22.59 211.95 -22.18 211.26 -21.57C210.58 -20.95 209.73 -19.99 208.73 -18.69L208.58 -18.69L208.23 -23.04L207.83 -23.04L201.97 -20.94L201.97 -20.39L205.22 -18.69L205.22 -2.05L202.07 -0.8Z M225.76 -29.86C226.53 -29.86 227.15 -30.1 227.62 -30.58C228.09 -31.07 228.32 -31.68 228.32 -32.41C228.32 -33.18 228.09 -33.8 227.62 -34.27C227.15 -34.73 226.53 -34.97 225.76 -34.97C225.03 -34.97 224.42 -34.73 223.94 -34.27C223.45 -33.8 223.21 -33.18 223.21 -32.41C223.21 -31.68 223.45 -31.07 223.94 -30.58C224.42 -30.1 225.03 -29.86 225.76 -29.86ZM221.31 0L231.18 0L231.18 -0.8L227.87 -2.05L227.87 -23.04L227.47 -23.04L221.21 -21.14L221.21 -20.64L224.46 -18.69L224.46 -2.05L221.31 -0.8Z"></path></g><g id="SvgjsG12111" class="text" transform="translate(231.91834650588908, 265.1303442024543) scale(1)" light-content="false" fill="#d2ac47"><path d="M-217.24 0.25C-216.53 0.25 -215.97 0.1 -215.53 -0.2C-215.1 -0.5 -214.81 -0.79 -214.68 -1.08L-214.68 -1.18L-214.71 -1.2C-214.97 -1.05 -215.26 -0.94 -215.56 -0.85C-215.86 -0.77 -216.19 -0.73 -216.56 -0.73C-217.08 -0.73 -217.49 -0.86 -217.81 -1.11C-218.13 -1.37 -218.29 -1.76 -218.29 -2.28L-218.29 -10.42L-214.98 -10.42L-214.98 -11.27L-218.29 -11.27L-218.29 -14.03L-218.56 -14.03L-219.39 -11.27L-221.74 -10.65L-221.74 -10.42L-219.54 -10.42L-219.54 -2.23C-219.54 -1.44 -219.33 -0.83 -218.9 -0.4C-218.48 0.03 -217.92 0.25 -217.24 0.25Z M-205.15 0.25C-204.14 0.25 -203.24 -0.01 -202.47 -0.53C-201.71 -1.04 -201.1 -1.75 -200.67 -2.63C-200.24 -3.52 -200.02 -4.52 -200.02 -5.64C-200.02 -6.75 -200.24 -7.76 -200.67 -8.64C-201.1 -9.53 -201.71 -10.23 -202.47 -10.75C-203.24 -11.26 -204.14 -11.52 -205.15 -11.52C-206.17 -11.52 -207.07 -11.26 -207.83 -10.75C-208.6 -10.23 -209.2 -9.53 -209.64 -8.64C-210.07 -7.76 -210.29 -6.75 -210.29 -5.64C-210.29 -4.52 -210.07 -3.52 -209.64 -2.63C-209.2 -1.75 -208.6 -1.04 -207.83 -0.53C-207.07 -0.01 -206.17 0.25 -205.15 0.25ZM-204.8 -0.33C-205.69 -0.33 -206.44 -0.58 -207.07 -1.1C-207.7 -1.62 -208.18 -2.32 -208.52 -3.21C-208.87 -4.09 -209.04 -5.08 -209.04 -6.16C-209.04 -7.06 -208.89 -7.88 -208.61 -8.6C-208.33 -9.33 -207.92 -9.91 -207.38 -10.33C-206.85 -10.76 -206.21 -10.97 -205.45 -10.97C-204.55 -10.97 -203.79 -10.71 -203.16 -10.18C-202.54 -9.66 -202.06 -8.95 -201.75 -8.08C-201.43 -7.2 -201.27 -6.22 -201.27 -5.13C-201.27 -4.32 -201.4 -3.54 -201.67 -2.81C-201.94 -2.07 -202.34 -1.47 -202.86 -1.01C-203.39 -0.56 -204.04 -0.33 -204.8 -0.33Z M-191.42 0.25C-190.72 0.25 -190.15 0.1 -189.72 -0.2C-189.28 -0.5 -189 -0.79 -188.86 -1.08L-188.86 -1.18L-188.89 -1.2C-189.16 -1.05 -189.44 -0.94 -189.74 -0.85C-190.04 -0.77 -190.38 -0.73 -190.74 -0.73C-191.26 -0.73 -191.68 -0.86 -192 -1.11C-192.31 -1.37 -192.47 -1.76 -192.47 -2.28L-192.47 -10.42L-189.16 -10.42L-189.16 -11.27L-192.47 -11.27L-192.47 -14.03L-192.75 -14.03L-193.57 -11.27L-195.93 -10.65L-195.93 -10.42L-193.72 -10.42L-193.72 -2.23C-193.72 -1.44 -193.51 -0.83 -193.08 -0.4C-192.66 0.03 -192.1 0.25 -191.42 0.25Z M-170.46 0.25C-169.53 0.25 -168.71 0.06 -168.01 -0.33C-167.31 -0.71 -166.76 -1.19 -166.38 -1.78L-166.38 -2.1L-166.45 -2.1C-166.82 -1.7 -167.33 -1.39 -167.98 -1.15C-168.63 -0.92 -169.34 -0.8 -170.11 -0.8C-171.53 -0.8 -172.63 -1.26 -173.41 -2.17C-174.18 -3.08 -174.57 -4.27 -174.57 -5.74C-174.57 -7.47 -174.19 -8.78 -173.43 -9.66C-172.67 -10.53 -171.71 -10.97 -170.54 -10.97C-169.87 -10.97 -169.32 -10.81 -168.9 -10.48C-168.47 -10.16 -168.07 -9.74 -167.71 -9.24L-167.38 -8.79L-167.28 -8.79L-166.6 -9.37C-166.49 -9.47 -166.43 -9.58 -166.43 -9.69C-166.43 -9.96 -166.7 -10.28 -167.23 -10.65C-167.55 -10.86 -167.97 -11.06 -168.48 -11.25C-169 -11.43 -169.59 -11.52 -170.26 -11.52C-171.33 -11.52 -172.29 -11.26 -173.13 -10.73C-173.97 -10.21 -174.63 -9.48 -175.11 -8.55C-175.58 -7.63 -175.82 -6.58 -175.82 -5.41C-175.82 -4.34 -175.62 -3.38 -175.21 -2.53C-174.8 -1.68 -174.2 -1 -173.41 -0.5C-172.61 0 -171.63 0.25 -170.46 0.25Z M-156.18 0.25C-155.24 0.25 -154.42 0.06 -153.71 -0.33C-153 -0.71 -152.46 -1.19 -152.09 -1.78L-152.09 -2.1L-152.17 -2.1C-152.54 -1.7 -153.04 -1.39 -153.68 -1.15C-154.33 -0.92 -155.04 -0.8 -155.83 -0.8C-157.26 -0.8 -158.38 -1.26 -159.17 -2.17C-159.96 -3.08 -160.36 -4.27 -160.36 -5.74C-160.36 -6.02 -160.35 -6.29 -160.33 -6.54L-152.14 -6.54L-152.07 -6.61C-152.19 -8.15 -152.62 -9.35 -153.37 -10.22C-154.12 -11.09 -155.16 -11.52 -156.48 -11.52C-157.4 -11.52 -158.24 -11.25 -159.02 -10.7C-159.8 -10.14 -160.42 -9.41 -160.9 -8.49C-161.37 -7.57 -161.61 -6.55 -161.61 -5.41C-161.61 -4.34 -161.41 -3.38 -161 -2.53C-160.59 -1.68 -159.98 -1 -159.17 -0.5C-158.36 0 -157.36 0.25 -156.18 0.25ZM-156.78 -10.97C-155.76 -10.97 -154.99 -10.63 -154.47 -9.94C-153.96 -9.26 -153.61 -8.31 -153.45 -7.09L-160.26 -7.09C-160.06 -8.32 -159.63 -9.28 -158.98 -9.96C-158.33 -10.63 -157.6 -10.97 -156.78 -10.97Z M-133.09 0.25C-132.15 0.25 -131.33 0.06 -130.62 -0.33C-129.91 -0.71 -129.37 -1.19 -129.01 -1.78L-129.01 -2.1L-129.08 -2.1C-129.45 -1.7 -129.95 -1.39 -130.6 -1.15C-131.24 -0.92 -131.95 -0.8 -132.74 -0.8C-134.18 -0.8 -135.29 -1.26 -136.08 -2.17C-136.88 -3.08 -137.27 -4.27 -137.27 -5.74C-137.27 -6.02 -137.26 -6.29 -137.25 -6.54L-129.06 -6.54L-128.98 -6.61C-129.1 -8.15 -129.53 -9.35 -130.28 -10.22C-131.04 -11.09 -132.07 -11.52 -133.39 -11.52C-134.31 -11.52 -135.16 -11.25 -135.93 -10.7C-136.71 -10.14 -137.34 -9.41 -137.81 -8.49C-138.29 -7.57 -138.53 -6.55 -138.53 -5.41C-138.53 -4.34 -138.32 -3.38 -137.91 -2.53C-137.5 -1.68 -136.89 -1 -136.08 -0.5C-135.27 0 -134.28 0.25 -133.09 0.25ZM-133.69 -10.97C-132.67 -10.97 -131.9 -10.63 -131.39 -9.94C-130.87 -9.26 -130.53 -8.31 -130.36 -7.09L-137.17 -7.09C-136.97 -8.32 -136.55 -9.28 -135.9 -9.96C-135.24 -10.63 -134.51 -10.97 -133.69 -10.97Z M-115.39 0L-110.78 0L-110.78 -0.38L-112.56 -0.8L-112.56 -9.14C-112.22 -9.58 -111.79 -9.92 -111.26 -10.16C-110.72 -10.4 -110.22 -10.52 -109.75 -10.52C-108.95 -10.52 -108.3 -10.26 -107.8 -9.73C-107.3 -9.21 -107.05 -8.43 -107.05 -7.41L-107.05 -0.8L-108.83 -0.38L-108.83 0L-104.22 0L-104.22 -0.38L-105.8 -0.8L-105.8 -8.09C-105.8 -8.52 -105.85 -8.93 -105.95 -9.29C-105.6 -9.69 -105.16 -10 -104.63 -10.21C-104.1 -10.42 -103.62 -10.52 -103.17 -10.52C-102.33 -10.52 -101.65 -10.26 -101.12 -9.73C-100.6 -9.21 -100.34 -8.43 -100.34 -7.41L-100.34 -0.8L-102.11 -0.38L-102.11 0L-97.5 0L-97.5 -0.38L-99.08 -0.8L-99.08 -8.09C-99.08 -9.21 -99.41 -10.06 -100.06 -10.65C-100.71 -11.23 -101.55 -11.52 -102.56 -11.52C-103.22 -11.52 -103.81 -11.38 -104.34 -11.08C-104.88 -10.79 -105.45 -10.34 -106.05 -9.72L-106.1 -9.72C-106.36 -10.32 -106.76 -10.77 -107.3 -11.07C-107.83 -11.37 -108.45 -11.52 -109.15 -11.52C-109.77 -11.52 -110.34 -11.37 -110.86 -11.07C-111.37 -10.77 -111.92 -10.32 -112.51 -9.72L-112.58 -9.72L-112.68 -11.52L-112.93 -11.52L-115.64 -10.92L-115.64 -10.55L-113.81 -10.32L-113.81 -0.8L-115.39 -0.38Z M-90.38 0.25C-89.7 0.25 -89.05 0.11 -88.44 -0.18C-87.83 -0.46 -87.31 -0.82 -86.88 -1.25L-86.83 -1.25C-86.76 -0.85 -86.57 -0.5 -86.25 -0.2C-85.93 0.1 -85.48 0.25 -84.9 0.25C-84.45 0.25 -84.09 0.16 -83.82 -0.03C-83.55 -0.21 -83.36 -0.38 -83.24 -0.55L-83.24 -0.6L-83.27 -0.63L-84.57 -0.63C-84.81 -0.63 -85.01 -0.66 -85.18 -0.73C-85.36 -0.79 -85.51 -0.89 -85.65 -1L-85.65 -8.79C-85.65 -9.73 -85.94 -10.42 -86.51 -10.86C-87.09 -11.3 -87.88 -11.52 -88.88 -11.52C-89.3 -11.52 -89.74 -11.42 -90.19 -11.21C-90.65 -11 -91.11 -10.75 -91.56 -10.47C-91.98 -10.2 -92.29 -9.9 -92.51 -9.57C-92.73 -9.23 -92.84 -8.91 -92.84 -8.59C-92.84 -8.36 -92.8 -8.2 -92.71 -8.12C-92.63 -8.03 -92.45 -7.99 -92.19 -7.99L-91.53 -7.99L-91.41 -8.12L-91.41 -9.14C-91.41 -9.64 -91.26 -10.04 -90.97 -10.33C-90.68 -10.62 -90.17 -10.77 -89.46 -10.77C-88.79 -10.77 -88.2 -10.55 -87.68 -10.11C-87.16 -9.66 -86.9 -9.08 -86.9 -8.37L-86.9 -6.29L-89.36 -5.66C-90.69 -5.33 -91.65 -4.89 -92.22 -4.36C-92.8 -3.82 -93.09 -3.16 -93.09 -2.35C-93.09 -1.54 -92.83 -0.9 -92.31 -0.44C-91.79 0.02 -91.15 0.25 -90.38 0.25ZM-91.84 -2.81C-91.84 -3.26 -91.71 -3.65 -91.47 -3.98C-91.23 -4.32 -90.75 -4.63 -90.04 -4.91C-89.33 -5.19 -88.29 -5.48 -86.9 -5.76L-86.9 -1.53C-87.33 -1.26 -87.79 -1.06 -88.28 -0.94C-88.76 -0.81 -89.21 -0.75 -89.63 -0.75C-90.33 -0.75 -90.88 -0.92 -91.26 -1.26C-91.64 -1.61 -91.84 -2.12 -91.84 -2.81Z M-77.12 -15.48C-76.86 -15.48 -76.63 -15.57 -76.45 -15.76C-76.26 -15.94 -76.17 -16.16 -76.17 -16.43C-76.17 -16.7 -76.26 -16.92 -76.45 -17.11C-76.63 -17.29 -76.86 -17.38 -77.12 -17.38C-77.39 -17.38 -77.62 -17.29 -77.8 -17.11C-77.98 -16.92 -78.08 -16.7 -78.08 -16.43C-78.08 -16.16 -77.98 -15.94 -77.8 -15.76C-77.62 -15.57 -77.39 -15.48 -77.12 -15.48ZM-78.98 0L-74.37 0L-74.37 -0.38L-76.15 -0.8L-76.15 -11.52L-76.4 -11.52L-79.23 -11.17L-79.23 -10.8L-77.4 -10.32L-77.4 -0.8L-78.98 -0.38Z M-59.07 0L-58.85 0L-58.32 -0.7C-57.89 -0.43 -57.41 -0.21 -56.91 -0.03C-56.4 0.16 -55.92 0.25 -55.49 0.25C-54.42 0.25 -53.44 0 -52.56 -0.5C-51.67 -1 -50.96 -1.73 -50.43 -2.69C-49.9 -3.65 -49.63 -4.82 -49.63 -6.19C-49.63 -7.29 -49.82 -8.24 -50.19 -9.03C-50.57 -9.82 -51.08 -10.44 -51.73 -10.87C-52.38 -11.31 -53.13 -11.52 -53.96 -11.52C-54.63 -11.52 -55.26 -11.4 -55.87 -11.15C-56.47 -10.9 -57.09 -10.5 -57.72 -9.97L-57.82 -9.97L-57.82 -18.79L-58.07 -18.79L-60.9 -18.31L-60.9 -17.93L-59.07 -17.58ZM-54.64 -10.67C-53.99 -10.67 -53.37 -10.5 -52.79 -10.16C-52.2 -9.81 -51.72 -9.28 -51.36 -8.55C-50.99 -7.83 -50.81 -6.91 -50.81 -5.79C-50.81 -4.48 -50.98 -3.44 -51.33 -2.64C-51.68 -1.85 -52.15 -1.28 -52.74 -0.93C-53.32 -0.58 -53.95 -0.4 -54.61 -0.4C-55.23 -0.4 -55.79 -0.49 -56.29 -0.66C-56.79 -0.84 -57.3 -1.09 -57.82 -1.43L-57.82 -9.42C-57.37 -9.82 -56.88 -10.13 -56.35 -10.35C-55.83 -10.56 -55.26 -10.67 -54.64 -10.67Z M-40.05 0.25C-39.42 0.25 -38.83 0.1 -38.3 -0.19C-37.76 -0.48 -37.2 -0.93 -36.6 -1.53L-36.52 -1.53L-36.52 0L-33.49 0L-33.49 -0.38L-35.27 -0.8L-35.27 -11.27L-38.55 -11.27L-38.55 -10.9L-36.52 -10.47L-36.52 -2.15C-36.87 -1.7 -37.33 -1.36 -37.89 -1.11C-38.44 -0.87 -38.97 -0.75 -39.45 -0.75C-40.29 -0.75 -40.97 -1.01 -41.49 -1.54C-42.02 -2.07 -42.28 -2.84 -42.28 -3.86L-42.28 -11.27L-45.31 -11.27L-45.31 -10.9L-43.53 -10.47L-43.53 -3.18C-43.53 -2.06 -43.21 -1.21 -42.56 -0.63C-41.91 -0.04 -41.07 0.25 -40.05 0.25Z M-28.92 0L-24.31 0L-24.31 -0.38L-26.09 -0.8L-26.09 -9.12C-25.72 -9.57 -25.25 -9.92 -24.66 -10.16C-24.08 -10.4 -23.54 -10.52 -23.04 -10.52C-22.15 -10.52 -21.44 -10.26 -20.89 -9.73C-20.35 -9.21 -20.08 -8.43 -20.08 -7.41L-20.08 -0.8L-21.86 -0.38L-21.86 0L-17.25 0L-17.25 -0.38L-18.83 -0.8L-18.83 -8.09C-18.83 -9.21 -19.17 -10.06 -19.84 -10.65C-20.52 -11.23 -21.38 -11.52 -22.43 -11.52C-23.12 -11.52 -23.74 -11.38 -24.29 -11.1C-24.84 -10.81 -25.42 -10.35 -26.04 -9.72L-26.12 -9.72L-26.22 -11.52L-26.47 -11.52L-29.17 -10.92L-29.17 -10.55L-27.34 -10.32L-27.34 -0.8L-28.92 -0.38Z M-3.66 0L0.95 0L0.95 -0.38L-0.83 -0.8L-0.83 -11.52L-1.08 -11.52L-3.91 -11.17L-3.91 -10.8L-2.08 -10.32L-2.08 -0.8L-3.66 -0.38ZM-4.86 -13.28L-4.51 -13.28L-1.45 -16.36L1.6 -13.28L1.95 -13.28L-1.18 -17.71L-1.73 -17.71Z M6.15 0L10.75 0L10.75 -0.38L8.98 -0.8L8.98 -9.12C9.34 -9.57 9.82 -9.92 10.4 -10.16C10.99 -10.4 11.53 -10.52 12.03 -10.52C12.92 -10.52 13.63 -10.26 14.17 -9.73C14.72 -9.21 14.99 -8.43 14.99 -7.41L14.99 -0.8L13.21 -0.38L13.21 0L17.82 0L17.82 -0.38L16.24 -0.8L16.24 -8.09C16.24 -9.21 15.9 -10.06 15.23 -10.65C14.55 -11.23 13.68 -11.52 12.63 -11.52C11.95 -11.52 11.33 -11.38 10.78 -11.1C10.23 -10.81 9.64 -10.35 9.03 -9.72L8.95 -9.72L8.85 -11.52L8.6 -11.52L5.89 -10.92L5.89 -10.55L7.72 -10.32L7.72 -0.8L6.15 -0.38Z M26.12 0.25C26.82 0.25 27.39 0.1 27.82 -0.2C28.25 -0.5 28.54 -0.79 28.67 -1.08L28.67 -1.18L28.65 -1.2C28.38 -1.05 28.1 -0.94 27.8 -0.85C27.49 -0.77 27.16 -0.73 26.79 -0.73C26.28 -0.73 25.86 -0.86 25.54 -1.11C25.22 -1.37 25.06 -1.76 25.06 -2.28L25.06 -10.42L28.37 -10.42L28.37 -11.27L25.06 -11.27L25.06 -14.03L24.79 -14.03L23.96 -11.27L21.61 -10.65L21.61 -10.42L23.81 -10.42L23.81 -2.23C23.81 -1.44 24.03 -0.83 24.45 -0.4C24.88 0.03 25.43 0.25 26.12 0.25Z M33.36 0L38.12 0L38.12 -0.38L36.19 -0.8L36.19 -8.62C36.68 -9.28 37.16 -9.75 37.65 -10.02C38.13 -10.29 38.62 -10.42 39.1 -10.42C39.48 -10.42 39.79 -10.36 40.03 -10.24L40.5 -10.02L40.55 -10.02L40.8 -10.67C40.82 -10.74 40.83 -10.79 40.84 -10.83C40.85 -10.88 40.85 -10.91 40.85 -10.95C40.85 -11.05 40.82 -11.13 40.74 -11.18C40.67 -11.24 40.54 -11.31 40.38 -11.37C40.14 -11.47 39.89 -11.52 39.6 -11.52C39.28 -11.52 39 -11.48 38.75 -11.4C38.5 -11.31 38.18 -11.11 37.8 -10.8C37.41 -10.48 36.9 -9.98 36.24 -9.29L36.19 -9.29L36.07 -11.52L35.82 -11.52L33.11 -10.92L33.11 -10.55L34.94 -10.32L34.94 -0.8L33.36 -0.38Z M44.24 -5.94L51.13 -5.94L51.13 -6.94L44.24 -6.94Z M60.73 0.25C61.37 0.25 61.95 0.1 62.49 -0.19C63.02 -0.48 63.59 -0.93 64.19 -1.53L64.27 -1.53L64.27 0L67.3 0L67.3 -0.38L65.52 -0.8L65.52 -11.27L62.24 -11.27L62.24 -10.9L64.27 -10.47L64.27 -2.15C63.91 -1.7 63.46 -1.36 62.9 -1.11C62.34 -0.87 61.82 -0.75 61.33 -0.75C60.5 -0.75 59.82 -1.01 59.29 -1.54C58.77 -2.07 58.5 -2.84 58.5 -3.86L58.5 -11.27L55.47 -11.27L55.47 -10.9L57.25 -10.47L57.25 -3.18C57.25 -2.06 57.58 -1.21 58.23 -0.63C58.88 -0.04 59.72 0.25 60.73 0.25Z M71.86 0L76.47 0L76.47 -0.38L74.69 -0.8L74.69 -9.12C75.06 -9.57 75.54 -9.92 76.12 -10.16C76.71 -10.4 77.25 -10.52 77.75 -10.52C78.63 -10.52 79.35 -10.26 79.89 -9.73C80.43 -9.21 80.71 -8.43 80.71 -7.41L80.71 -0.8L78.93 -0.38L78.93 0L83.54 0L83.54 -0.38L81.96 -0.8L81.96 -8.09C81.96 -9.21 81.62 -10.06 80.94 -10.65C80.27 -11.23 79.4 -11.52 78.35 -11.52C77.67 -11.52 77.05 -11.38 76.5 -11.1C75.95 -10.81 75.36 -10.35 74.74 -9.72L74.67 -9.72L74.57 -11.52L74.32 -11.52L71.61 -10.92L71.61 -10.55L73.44 -10.32L73.44 -0.8L71.86 -0.38Z M100.08 0.25C100.87 0.25 101.55 0.1 102.14 -0.19C102.72 -0.48 103.17 -0.87 103.49 -1.35C103.81 -1.84 103.97 -2.36 103.97 -2.93C103.97 -3.57 103.86 -4.09 103.64 -4.5C103.42 -4.91 103.09 -5.25 102.63 -5.54C102.17 -5.82 101.57 -6.11 100.84 -6.41C100.02 -6.75 99.42 -7.09 99.06 -7.44C98.69 -7.79 98.51 -8.27 98.51 -8.89C98.51 -9.51 98.68 -10.01 99.02 -10.4C99.36 -10.78 99.86 -10.97 100.51 -10.97C100.98 -10.97 101.44 -10.85 101.9 -10.6C102.36 -10.35 102.67 -9.93 102.84 -9.34L103.17 -8.27L103.47 -8.27L103.47 -10.82C103.12 -11 102.7 -11.17 102.21 -11.31C101.73 -11.45 101.18 -11.52 100.56 -11.52C100.01 -11.52 99.49 -11.39 99.01 -11.12C98.52 -10.85 98.13 -10.5 97.84 -10.06C97.55 -9.61 97.4 -9.13 97.4 -8.59C97.4 -7.72 97.64 -7.06 98.12 -6.59C98.59 -6.12 99.33 -5.69 100.34 -5.29C101.29 -4.9 101.94 -4.52 102.29 -4.15C102.64 -3.77 102.81 -3.26 102.81 -2.61C102.81 -1.87 102.59 -1.31 102.15 -0.91C101.71 -0.52 101.09 -0.33 100.28 -0.33C99.55 -0.33 98.98 -0.47 98.58 -0.76C98.18 -1.06 97.91 -1.45 97.76 -1.95L97.4 -3.08L97.1 -3.08L97.1 -0.48C97.59 -0.24 98.06 -0.06 98.52 0.06C98.98 0.19 99.5 0.25 100.08 0.25Z M111.51 -15.48C111.78 -15.48 112.01 -15.57 112.19 -15.76C112.37 -15.94 112.47 -16.16 112.47 -16.43C112.47 -16.7 112.37 -16.92 112.19 -17.11C112.01 -17.29 111.78 -17.38 111.51 -17.38C111.25 -17.38 111.02 -17.29 110.84 -17.11C110.65 -16.92 110.56 -16.7 110.56 -16.43C110.56 -16.16 110.65 -15.94 110.84 -15.76C111.02 -15.57 111.25 -15.48 111.51 -15.48ZM109.66 0L114.27 0L114.27 -0.38L112.49 -0.8L112.49 -11.52L112.24 -11.52L109.41 -11.17L109.41 -10.8L111.24 -10.32L111.24 -0.8L109.66 -0.38Z M119.46 0L124.07 0L124.07 -0.38L122.29 -0.8L122.29 -9.12C122.66 -9.57 123.14 -9.92 123.72 -10.16C124.31 -10.4 124.85 -10.52 125.35 -10.52C126.24 -10.52 126.95 -10.26 127.49 -9.73C128.03 -9.21 128.31 -8.43 128.31 -7.41L128.31 -0.8L126.53 -0.38L126.53 0L131.14 0L131.14 -0.38L129.56 -0.8L129.56 -8.09C129.56 -9.21 129.22 -10.06 128.54 -10.65C127.87 -11.23 127 -11.52 125.95 -11.52C125.27 -11.52 124.65 -11.38 124.1 -11.1C123.55 -10.81 122.96 -10.35 122.34 -9.72L122.27 -9.72L122.17 -11.52L121.92 -11.52L119.21 -10.92L119.21 -10.55L121.04 -10.32L121.04 -0.8L119.46 -0.38Z M140.26 -3.78C141.01 -3.78 141.68 -3.95 142.27 -4.28C142.85 -4.62 143.31 -5.08 143.64 -5.66C143.98 -6.25 144.14 -6.91 144.14 -7.64C144.14 -8.16 144.07 -8.67 143.93 -9.18C143.79 -9.69 143.59 -10.09 143.32 -10.37L143.37 -10.42L145.9 -10.24L145.9 -11.27L142.49 -11.07C142.24 -11.19 141.9 -11.29 141.46 -11.38C141.03 -11.48 140.63 -11.52 140.26 -11.52C139.51 -11.52 138.84 -11.35 138.26 -11.01C137.67 -10.67 137.21 -10.2 136.87 -9.62C136.53 -9.03 136.35 -8.37 136.35 -7.64C136.35 -6.89 136.53 -6.22 136.88 -5.62C137.23 -5.03 137.71 -4.58 138.31 -4.26L138.31 -4.13L136.83 -3.26C136.46 -2.89 136.28 -2.43 136.28 -1.88C136.28 -0.88 136.82 -0.22 137.91 0.1L137.91 0.15L136.38 1.43C136.13 1.88 136 2.41 136 3.03C136 3.87 136.32 4.57 136.96 5.15C137.59 5.72 138.63 6.01 140.09 6.01C141.22 6.01 142.21 5.81 143.04 5.41C143.88 5.01 144.53 4.49 145 3.86C145.46 3.22 145.7 2.56 145.7 1.88C145.7 1.06 145.43 0.42 144.91 -0.05C144.38 -0.52 143.63 -0.75 142.64 -0.75L139.81 -0.75C138.98 -0.75 138.36 -0.88 137.96 -1.13C137.56 -1.38 137.36 -1.79 137.36 -2.35C137.36 -2.71 137.46 -3.01 137.68 -3.28C137.9 -3.55 138.28 -3.8 138.83 -4.03C139.29 -3.87 139.76 -3.78 140.26 -3.78ZM140.51 -4.28C139.68 -4.28 138.99 -4.57 138.45 -5.13C137.9 -5.7 137.63 -6.56 137.63 -7.72C137.63 -8.75 137.85 -9.56 138.28 -10.16C138.72 -10.75 139.32 -11.05 140.09 -11.05C140.87 -11.05 141.53 -10.76 142.07 -10.18C142.6 -9.61 142.87 -8.74 142.87 -7.59C142.87 -6.54 142.65 -5.72 142.23 -5.15C141.8 -4.57 141.23 -4.28 140.51 -4.28ZM137.16 2.76C137.16 2.15 137.25 1.65 137.43 1.24C137.62 0.83 137.95 0.48 138.43 0.2C138.67 0.23 138.91 0.25 139.16 0.25L141.79 0.25C142.84 0.25 143.57 0.4 143.98 0.7C144.39 1 144.6 1.55 144.6 2.35C144.6 2.89 144.42 3.39 144.07 3.87C143.72 4.35 143.23 4.73 142.62 5.02C142 5.31 141.29 5.46 140.49 5.46C139.55 5.46 138.76 5.2 138.12 4.68C137.48 4.17 137.16 3.52 137.16 2.76Z M155.5 0.25C156.13 0.25 156.72 0.1 157.25 -0.19C157.79 -0.48 158.36 -0.93 158.96 -1.53L159.03 -1.53L159.03 0L162.06 0L162.06 -0.38L160.28 -0.8L160.28 -11.27L157 -11.27L157 -10.9L159.03 -10.47L159.03 -2.15C158.68 -1.7 158.23 -1.36 157.67 -1.11C157.11 -0.87 156.59 -0.75 156.1 -0.75C155.27 -0.75 154.59 -1.01 154.06 -1.54C153.53 -2.07 153.27 -2.84 153.27 -3.86L153.27 -11.27L150.24 -11.27L150.24 -10.9L152.02 -10.47L152.02 -3.18C152.02 -2.06 152.34 -1.21 152.99 -0.63C153.65 -0.04 154.48 0.25 155.5 0.25Z M166.73 0L171.49 0L171.49 -0.38L169.56 -0.8L169.56 -8.62C170.04 -9.28 170.53 -9.75 171.01 -10.02C171.5 -10.29 171.98 -10.42 172.47 -10.42C172.85 -10.42 173.16 -10.36 173.39 -10.24L173.87 -10.02L173.92 -10.02L174.17 -10.67C174.19 -10.74 174.2 -10.79 174.21 -10.83C174.22 -10.88 174.22 -10.91 174.22 -10.95C174.22 -11.05 174.18 -11.13 174.11 -11.18C174.03 -11.24 173.91 -11.31 173.74 -11.37C173.51 -11.47 173.25 -11.52 172.97 -11.52C172.65 -11.52 172.37 -11.48 172.12 -11.4C171.86 -11.31 171.55 -11.11 171.16 -10.8C170.78 -10.48 170.26 -9.98 169.61 -9.29L169.56 -9.29L169.44 -11.52L169.18 -11.52L166.48 -10.92L166.48 -10.55L168.31 -10.32L168.31 -0.8L166.73 -0.38Z M186.61 0L191.22 0L191.22 -0.38L189.44 -0.8L189.44 -18.79L189.19 -18.79L186.36 -18.44L186.36 -18.06L188.19 -17.58L188.19 -0.8L186.61 -0.38Z M201.1 0.25C202.11 0.25 203.01 -0.01 203.78 -0.53C204.54 -1.04 205.15 -1.75 205.58 -2.63C206.01 -3.52 206.23 -4.52 206.23 -5.64C206.23 -6.75 206.01 -7.76 205.58 -8.64C205.15 -9.53 204.54 -10.23 203.78 -10.75C203.01 -11.26 202.11 -11.52 201.1 -11.52C200.08 -11.52 199.18 -11.26 198.42 -10.75C197.65 -10.23 197.05 -9.53 196.61 -8.64C196.18 -7.76 195.96 -6.75 195.96 -5.64C195.96 -4.52 196.18 -3.52 196.61 -2.63C197.05 -1.75 197.65 -1.04 198.42 -0.53C199.18 -0.01 200.08 0.25 201.1 0.25ZM201.45 -0.33C200.56 -0.33 199.81 -0.58 199.18 -1.1C198.55 -1.62 198.07 -2.32 197.73 -3.21C197.38 -4.09 197.21 -5.08 197.21 -6.16C197.21 -7.06 197.36 -7.88 197.64 -8.6C197.92 -9.33 198.33 -9.91 198.87 -10.33C199.4 -10.76 200.04 -10.97 200.8 -10.97C201.7 -10.97 202.46 -10.71 203.09 -10.18C203.71 -9.66 204.19 -8.95 204.5 -8.08C204.82 -7.2 204.98 -6.22 204.98 -5.13C204.98 -4.32 204.84 -3.54 204.58 -2.81C204.31 -2.07 203.91 -1.47 203.39 -1.01C202.86 -0.56 202.21 -0.33 201.45 -0.33Z M216.99 0.25C217.92 0.25 218.74 0.06 219.44 -0.33C220.14 -0.71 220.68 -1.19 221.07 -1.78L221.07 -2.1L220.99 -2.1C220.63 -1.7 220.12 -1.39 219.46 -1.15C218.81 -0.92 218.1 -0.8 217.34 -0.8C215.92 -0.8 214.82 -1.26 214.04 -2.17C213.27 -3.08 212.88 -4.27 212.88 -5.74C212.88 -7.47 213.26 -8.78 214.02 -9.66C214.78 -10.53 215.74 -10.97 216.91 -10.97C217.58 -10.97 218.12 -10.81 218.55 -10.48C218.98 -10.16 219.37 -9.74 219.74 -9.24L220.07 -8.79L220.17 -8.79L220.84 -9.37C220.96 -9.47 221.02 -9.58 221.02 -9.69C221.02 -9.96 220.75 -10.28 220.22 -10.65C219.9 -10.86 219.48 -11.06 218.96 -11.25C218.45 -11.43 217.85 -11.52 217.19 -11.52C216.12 -11.52 215.16 -11.26 214.32 -10.73C213.47 -10.21 212.81 -9.48 212.34 -8.55C211.86 -7.63 211.62 -6.58 211.62 -5.41C211.62 -4.34 211.83 -3.38 212.24 -2.53C212.65 -1.68 213.25 -1 214.04 -0.5C214.83 0 215.82 0.25 216.99 0.25Z"></path></g></g></g></svg>